<!-- Copyright © 2015 MODULUS Sp. z o. o. / FUTURAMO™ --><svg xmlns="http://www.w3.org/2000/svg" x="0px" y="0px" width="64px" height="64px" viewBox="0 0 32 32"><path d="M28.004,6H28H4.004H4c-2.209,0-4,1.791-4,4v14c0,2.209,1.791,4,4,4h0.004H28h0.004c2.211,0,4-1.787,4-4V10 C32.004,7.787,30.215,6,28.004,6z M19.824,17l9.981-7.834C29.922,9.422,30,9.699,30,10v14c0,0.301-0.078,0.578-0.195,0.834 L19.824,17z M28,8c0.016,0,0.027,0.008,0.041,0.008l-12.037,9.457L3.965,8.008V8.007C3.977,8.007,3.988,8,4,8h0.004H28z  M2.199,24.84c-0.117-0.25-0.191-0.522-0.195-0.815V9.976C2.008,9.683,2.082,9.41,2.199,9.16L12.184,17L2.199,24.84z M4.004,26H4 c-0.012,0-0.023-0.007-0.035-0.007v-0.001l9.828-7.715l0.012-0.006l1.582,1.243c0.363,0.285,0.873,0.285,1.234,0l1.582-1.243 l0.012,0.006l9.826,7.715C28.027,25.992,28.016,26,28,26H4.004z"></path></svg>