<!-- Copyright © 2015 MODULUS Sp. z o. o. / FUTURAMO™ --><svg xmlns="http://www.w3.org/2000/svg" x="0px" y="0px" width="64px" height="64px" viewBox="0 0 32 32"><path  fill="#000000" d="M28,0H4C1.791,0,0,1.791,0,4v8v16c0,2.209,1.791,4,4,4h24c2.209,0,4-1.791,4-4V12V4C32,1.791,30.209,0,28,0z  M2,4c0-1.103,0.897-2,2-2h24c1.103,0,2,0.897,2,2v6h-8.759C19.834,8.77,18.015,8,16,8s-3.834,0.77-5.241,2H2V4z M22,16 c0,3.308-2.691,6-6,6s-6-2.692-6-6c0-1.542,0.602-2.936,1.561-4c1.099-1.219,2.673-2,4.439-2s3.341,0.781,4.439,2 C21.398,13.064,22,14.458,22,16z M30,28c0,1.103-0.897,2-2,2H4c-1.103,0-2-0.897-2-2V12h7.109C8.422,13.181,8,14.535,8,16 c0,4.418,3.582,8,8,8s8-3.582,8-8c0-1.465-0.422-2.819-1.109-4H30V28z M28,7.5C28,7.776,27.776,8,27.5,8h-3 C24.224,8,24,7.776,24,7.5v-3C24,4.224,24.224,4,24.5,4h3C27.776,4,28,4.224,28,4.5V7.5z"></path></svg>