<!-- Copyright © 2015 MODULUS Sp. z o. o. / FUTURAMO™ --><svg xmlns="http://www.w3.org/2000/svg" x="0px" y="0px" width="32px" height="32px" viewBox="0 0 32 32"><path  fill="#000000" d="M30,15V3.416l-17.09,17.09c-0.391,0.393-1.023,0.393-1.414,0c-0.391-0.391-0.391-1.021,0-1.414L28.586,2H17 c-0.553,0-1-0.447-1-1s0.447-1,1-1h13.586H31c0.553,0,1,0.447,1,1v0.416V15c0,0.553-0.447,1-1,1S30,15.553,30,15z M24,15.071V28 c0,1.103-0.897,2-2,2H4c-1.103,0-2-0.897-2-2V10c0-1.103,0.897-2,2-2h12.929l2-2H4c-2.209,0-4,1.791-4,4v18c0,2.209,1.791,4,4,4h18 c2.209,0,4-1.791,4-4V13.071L24,15.071z"></path></svg>