<!-- Copyright © 2015 MODULUS Sp. z o. o. / FUTURAMO™ --><svg xmlns="http://www.w3.org/2000/svg" x="0px" y="0px" width="64px" height="64px" viewBox="0 0 32 32"><path  d="M31.609,7.058c0.052-0.072,0.051-0.17-0.004-0.24c-0.054-0.07-0.149-0.096-0.231-0.064 c-0.996,0.391-2.049,0.661-3.145,0.796c1.203-0.739,2.158-1.86,2.701-3.203c0.032-0.078,0.011-0.168-0.053-0.225 c-0.063-0.056-0.155-0.066-0.229-0.025c-1.143,0.632-2.387,1.097-3.701,1.362c-1.197-1.308-2.903-2.125-4.791-2.125 c-3.625,0-6.565,3.014-6.565,6.731c0,0.528,0.058,1.042,0.169,1.534c-5.134-0.264-9.721-2.652-12.942-6.327 C2.679,5.114,2.469,5.04,2.263,5.076S1.884,5.253,1.807,5.448C1.505,6.221,1.339,7.066,1.339,7.95c0,2.336,1.159,4.394,2.921,5.604 c-0.611-0.021-1.487-0.262-2.131-0.467c-0.197-0.063-0.412-0.02-0.57,0.114c-0.158,0.133-0.235,0.338-0.206,0.543 c0.227,1.591,1.186,4.718,5.199,5.652c-0.498,0.231-1.357,0.241-2.023,0.204c-0.212-0.012-0.415,0.09-0.532,0.267 s-0.133,0.403-0.04,0.594c0.645,1.334,2.256,3.616,5.762,3.726c-2.639,2.1-5.453,2.708-7.371,2.844 c-0.272,0.019-0.497,0.22-0.547,0.488c-0.05,0.268,0.087,0.537,0.334,0.653C3.931,29.018,6.733,30,10.064,30 c12.076,0,18.679-10.258,18.679-19.155c0-0.291-0.005-0.582-0.018-0.871C29.823,9.161,30.799,8.173,31.609,7.058z M10.064,28 c-0.834,0-1.66-0.064-2.477-0.189c4.621-1.977,7.682-5.518,7.682-5.518s-6.186,0.915-8.18-1.059c2.16-0.693,3.452-1.443,3.91-2.276 c0,0-6.188-1.427-7.156-3.615c4.594,1.094,7.199,0.445,7.199,0.445s-4.959-0.998-7.656-7.145c3.43,2.955,7.738,4.719,12.271,4.951 l2.635,0.135l-0.582-2.574c-0.08-0.354-0.121-0.721-0.121-1.092c0-2.607,2.047-4.73,4.564-4.73c1.27,0,4.471,1.104,4.588,5.512 C26.926,17.752,21.568,28,10.064,28z"></path></svg>